<svg width="12" height="13" fill="none" xmlns="http://www.w3.org/2000/svg"><path fill-rule="evenodd" clip-rule="evenodd" d="M2.09 6.084A.31.31 0 0 1 2.308 6a.328.328 0 0 1 .218.084L6 9.31l3.474-3.226A.31.31 0 0 1 9.692 6a.329.329 0 0 1 .218.084.268.268 0 0 1 0 .404L6.218 9.916A.31.31 0 0 1 6 10a.328.328 0 0 1-.218-.084L2.09 6.488a.268.268 0 0 1 0-.404Z" fill="#003154"/><path fill-rule="evenodd" clip-rule="evenodd" d="M2.09 6.084A.31.31 0 0 1 2.308 6a.328.328 0 0 1 .218.084L6 9.31l3.474-3.226A.31.31 0 0 1 9.692 6a.329.329 0 0 1 .218.084.268.268 0 0 1 0 .404L6.218 9.916A.31.31 0 0 1 6 10a.328.328 0 0 1-.218-.084L2.09 6.488a.268.268 0 0 1 0-.404Z" fill="#003154"/><path clip-rule="evenodd" d="M2.09 6.084A.31.31 0 0 1 2.308 6a.328.328 0 0 1 .218.084L6 9.31l3.474-3.226A.31.31 0 0 1 9.692 6a.329.329 0 0 1 .218.084.268.268 0 0 1 0 .404L6.218 9.916A.31.31 0 0 1 6 10a.328.328 0 0 1-.218-.084L2.09 6.488a.268.268 0 0 1 0-.404Z" stroke="#003154" stroke-width=".5"/><path clip-rule="evenodd" d="M2.09 6.084A.31.31 0 0 1 2.308 6a.328.328 0 0 1 .218.084L6 9.31l3.474-3.226A.31.31 0 0 1 9.692 6a.329.329 0 0 1 .218.084.268.268 0 0 1 0 .404L6.218 9.916A.31.31 0 0 1 6 10a.328.328 0 0 1-.218-.084L2.09 6.488a.268.268 0 0 1 0-.404Z" stroke="#003154" stroke-width=".5"/></svg>