<svg width="20" height="20" fill="none" xmlns="http://www.w3.org/2000/svg"><path fill-rule="evenodd" clip-rule="evenodd" d="M1.25 16.667c0-.221.084-.433.233-.59a.778.778 0 0 1 .562-.244h15.91c.21 0 .413.088.562.244.15.157.233.369.233.59a.854.854 0 0 1-.233.589.778.778 0 0 1-.563.244H2.045a.778.778 0 0 1-.562-.244.854.854 0 0 1-.233-.59Zm0-6.667c0-.221.084-.433.233-.59a.778.778 0 0 1 .562-.243h15.91c.21 0 .413.087.562.244.15.156.233.368.233.589a.854.854 0 0 1-.233.59.778.778 0 0 1-.563.243H2.045a.778.778 0 0 1-.562-.244A.854.854 0 0 1 1.25 10Zm0-6.667c0-.22.084-.433.233-.589a.778.778 0 0 1 .562-.244h15.91c.21 0 .413.088.562.244.15.156.233.368.233.59a.854.854 0 0 1-.233.589.778.778 0 0 1-.563.244H2.045a.778.778 0 0 1-.562-.244.854.854 0 0 1-.233-.59Z" fill="#1E1E1E"/><path fill-rule="evenodd" clip-rule="evenodd" d="M2.045 2.563c-.193 0-.38.08-.517.224a.791.791 0 0 0-.216.546c0 .206.078.402.216.546a.715.715 0 0 0 .517.225h15.91c.193 0 .38-.08.517-.225a.791.791 0 0 0 .215-.546.791.791 0 0 0-.215-.546.715.715 0 0 0-.518-.224H2.045Zm-.607.138a.84.84 0 0 1 .607-.264h15.91a.84.84 0 0 1 .607.264c.16.168.25.396.25.632 0 .237-.09.465-.25.633a.84.84 0 0 1-.608.263H2.045a.84.84 0 0 1-.607-.263.916.916 0 0 1-.25-.633c0-.236.09-.464.25-.632Zm.607 6.528c-.193 0-.38.08-.517.225a.791.791 0 0 0-.216.546c0 .205.078.402.216.546a.715.715 0 0 0 .517.225h15.91c.193 0 .38-.08.517-.225a.791.791 0 0 0 .215-.546.791.791 0 0 0-.215-.546.715.715 0 0 0-.518-.225H2.045Zm-.607.139a.84.84 0 0 1 .607-.264h15.91a.84.84 0 0 1 .607.264c.16.168.25.395.25.632s-.09.464-.25.632a.84.84 0 0 1-.608.264H2.045a.84.84 0 0 1-.607-.264.916.916 0 0 1-.25-.632c0-.237.09-.464.25-.632Zm.607 6.528c-.193 0-.38.08-.517.225a.791.791 0 0 0-.216.546c0 .205.078.401.216.546a.715.715 0 0 0 .517.224h15.91c.193 0 .38-.08.517-.224a.792.792 0 0 0 .215-.546.791.791 0 0 0-.215-.546.715.715 0 0 0-.518-.225H2.045Zm-.607.138a.84.84 0 0 1 .607-.263h15.91a.84.84 0 0 1 .607.263c.16.169.25.396.25.633 0 .236-.09.464-.25.632a.84.84 0 0 1-.608.264H2.045a.84.84 0 0 1-.607-.264.917.917 0 0 1-.25-.632c0-.237.09-.465.25-.633Z" fill="#1E1E1E"/></svg>